<svg width="22" height="22" viewBox="0 0 22 22" fill="none" xmlns="http://www.w3.org/2000/svg">
<path d="M1 10.7437C1 6.87578 1 4.94182 2.17033 3.7402C3.34066 2.53857 5.2291 2.53857 9.00037 2.53857H13.0006C16.7723 2.53857 18.6579 2.53857 19.8297 3.7402C21.0014 4.94182 21 6.87578 21 10.7437V12.795C21 16.6629 21 18.5969 19.8297 19.7985C18.6593 21.0001 16.7723 21.0001 13.001 21.0001H9.00037C5.2291 21.0001 3.343 21.0001 2.17173 19.7985C1.00047 18.5969 1 16.6634 1 12.795V10.7437Z" stroke="#05676F" stroke-width="2"/>
<path d="M6 2.53637V1" stroke="#05676F" stroke-width="2" stroke-linecap="round"/>
<path d="M16.001 2.53637V1" stroke="#05676F" stroke-width="2" stroke-linecap="round"/>
<path d="M5.99845 14.104C6.30381 14.104 6.60232 14.014 6.85628 13.8453C7.11023 13.6767 7.30824 13.437 7.42529 13.1565C7.54234 12.876 7.57317 12.5673 7.51391 12.2694C7.45464 11.9715 7.30793 11.6978 7.0923 11.4827C6.87667 11.2677 6.6018 11.121 6.30241 11.0613C6.00302 11.0015 5.69254 11.0314 5.41019 11.147C5.12783 11.2626 4.88627 11.4589 4.71602 11.711C4.54576 11.9631 4.45445 12.2597 4.45362 12.5634C4.45306 12.7655 4.49261 12.9658 4.57 13.1527C4.64739 13.3395 4.76109 13.5094 4.9046 13.6525C5.0481 13.7956 5.21859 13.9092 5.4063 13.9866C5.594 14.0641 5.79523 14.104 5.99845 14.104Z" stroke="#05676F" stroke-width="2"/>
<path d="M1.51611 7.66699H20.4862" stroke="#05676F" stroke-width="2" stroke-linecap="round"/>
<path d="M16.2215 13.1362H12.9708C12.9334 13.1357 12.8965 13.128 12.8621 13.1133C12.8277 13.0987 12.7966 13.0774 12.7705 13.0508C12.7444 13.0241 12.7239 12.9926 12.71 12.958C12.6962 12.9235 12.6894 12.8866 12.6899 12.8494C12.6888 12.776 12.6588 12.706 12.6062 12.6545C12.5536 12.6031 12.4828 12.5742 12.4091 12.5742H11.7247C11.6502 12.5742 11.5787 12.6036 11.526 12.656C11.4734 12.7084 11.4438 12.7795 11.4438 12.8536V16.4426C11.4438 16.5167 11.4142 16.5877 11.3615 16.6401C11.3088 16.6925 11.2374 16.7219 11.1629 16.7219H10.4527C10.4159 16.7219 10.3793 16.7147 10.3453 16.7007C10.3112 16.6866 10.2802 16.6661 10.2541 16.6401C10.2281 16.6142 10.2074 16.5834 10.1932 16.5495C10.1791 16.5156 10.1719 16.4793 10.1719 16.4426V14.8439C10.1719 14.8072 10.1646 14.7708 10.1505 14.737C10.1364 14.7031 10.1157 14.6723 10.0896 14.6463C10.0635 14.6204 10.0326 14.5998 9.99847 14.5858C9.9644 14.5717 9.92787 14.5645 9.89099 14.5645H9.1593C9.12241 14.5645 9.08589 14.5717 9.05181 14.5858C9.01773 14.5998 8.98677 14.6204 8.96069 14.6463C8.9346 14.6723 8.91391 14.7031 8.8998 14.737C8.88568 14.7708 8.87842 14.8072 8.87842 14.8439V17.6652C8.87842 17.7393 8.90801 17.8103 8.96069 17.8627C9.01336 17.9151 9.0848 17.9445 9.1593 17.9445H12.4091C12.4836 17.9445 12.555 17.9151 12.6077 17.8627C12.6604 17.8103 12.6899 17.7393 12.6899 17.6652V16.8332C12.6899 16.7591 12.7195 16.6881 12.7722 16.6357C12.8249 16.5833 12.8963 16.5539 12.9708 16.5539H16.6691C16.7436 16.5539 16.815 16.5244 16.8677 16.4721C16.9204 16.4197 16.9499 16.3486 16.9499 16.2745V13.8629C16.9499 13.6699 16.8729 13.4848 16.7356 13.3484C16.5984 13.2119 16.4123 13.1352 16.2183 13.1352M16.0479 15.2964C15.9837 15.3405 15.9072 15.3635 15.8292 15.362H12.9114C12.8859 15.362 12.8615 15.352 12.8435 15.3341C12.8255 15.3162 12.8154 15.2919 12.8154 15.2666V14.7591C12.8154 14.7338 12.8255 14.7095 12.8435 14.6916C12.8615 14.6737 12.8859 14.6637 12.9114 14.6637H15.832C15.9101 14.6622 15.9867 14.6849 16.0511 14.7289C16.0967 14.761 16.1339 14.8036 16.1596 14.853C16.1852 14.9024 16.1986 14.9572 16.1986 15.0129C16.1986 15.0685 16.1852 15.1233 16.1596 15.1727C16.1339 15.2221 16.0967 15.2647 16.0511 15.2968" fill="#05676F"/>
</svg>
