<svg width="32" height="34" viewBox="0 0 32 34" fill="none" xmlns="http://www.w3.org/2000/svg">
<path d="M17.7425 12.3739H12.9869C12.9322 12.3733 12.8781 12.3612 12.8279 12.3384C12.7776 12.3156 12.732 12.2825 12.6939 12.2411C12.6557 12.1997 12.6256 12.1507 12.6054 12.0969C12.5852 12.0432 12.5752 11.9857 12.576 11.9279C12.5744 11.8138 12.5304 11.705 12.4535 11.6249C12.3766 11.5449 12.273 11.5 12.1651 11.5H11.1638C11.0549 11.5 10.9504 11.5458 10.8733 11.6272C10.7962 11.7087 10.7529 11.8192 10.7529 11.9344V17.516C10.7529 17.6312 10.7097 17.7417 10.6326 17.8232C10.5555 17.9047 10.451 17.9504 10.342 17.9504H9.30313C9.24917 17.9504 9.19573 17.9392 9.14588 17.9174C9.09603 17.8955 9.05073 17.8635 9.01257 17.8232C8.97442 17.7829 8.94415 17.735 8.9235 17.6823C8.90285 17.6296 8.89222 17.5731 8.89222 17.516V15.0297C8.89222 14.9726 8.88159 14.9161 8.86094 14.8634C8.84029 14.8107 8.81003 14.7628 8.77187 14.7225C8.73372 14.6822 8.68842 14.6502 8.63856 14.6283C8.58871 14.6065 8.53528 14.5953 8.48132 14.5953H7.41091C7.35694 14.5953 7.30351 14.6065 7.25366 14.6283C7.2038 14.6502 7.15851 14.6822 7.12035 14.7225C7.0822 14.7628 7.05193 14.8107 7.03128 14.8634C7.01063 14.9161 7 14.9726 7 15.0297V19.4173C7 19.5325 7.04329 19.643 7.12035 19.7245C7.19741 19.806 7.30193 19.8518 7.41091 19.8518H12.1651C12.2741 19.8518 12.3786 19.806 12.4556 19.7245C12.5327 19.643 12.576 19.5325 12.576 19.4173V18.1235C12.576 18.0083 12.6193 17.8978 12.6963 17.8163C12.7734 17.7348 12.8779 17.6891 12.9869 17.6891H18.3972C18.5061 17.6891 18.6107 17.6433 18.6877 17.5618C18.7648 17.4803 18.8081 17.3699 18.8081 17.2546V13.5041C18.8081 13.204 18.6953 12.9161 18.4946 12.7039C18.2938 12.4917 18.0216 12.3725 17.7377 12.3725M17.4884 15.7334C17.3945 15.8021 17.2827 15.8378 17.1686 15.8355H12.8999C12.8627 15.8355 12.827 15.8199 12.8007 15.7921C12.7743 15.7642 12.7595 15.7265 12.7595 15.6871V14.8979C12.7595 14.8585 12.7743 14.8208 12.8007 14.7929C12.827 14.7651 12.8627 14.7495 12.8999 14.7495H17.1727C17.2869 14.7471 17.3989 14.7825 17.4932 14.8508C17.5599 14.9009 17.6143 14.9671 17.6518 15.0439C17.6894 15.1208 17.709 15.206 17.709 15.2925C17.709 15.379 17.6894 15.4642 17.6518 15.5411C17.6143 15.6179 17.5599 15.6841 17.4932 15.7342" fill="#05676F"/>
<path d="M17.7425 20.7255H12.9869C12.9322 20.7248 12.8781 20.7127 12.8279 20.69C12.7776 20.6672 12.732 20.6341 12.6939 20.5927C12.6557 20.5512 12.6256 20.5022 12.6054 20.4485C12.5852 20.3947 12.5752 20.3373 12.576 20.2795C12.5744 20.1654 12.5304 20.0566 12.4535 19.9765C12.3766 19.8964 12.273 19.8515 12.1651 19.8516H11.1638C11.0549 19.8516 10.9504 19.8973 10.8733 19.9788C10.7962 20.0603 10.7529 20.1708 10.7529 20.286V25.8676C10.7529 25.9828 10.7097 26.0933 10.6326 26.1748C10.5555 26.2562 10.451 26.302 10.342 26.302H9.30313C9.24917 26.302 9.19573 26.2908 9.14588 26.2689C9.09603 26.2471 9.05073 26.2151 9.01257 26.1748C8.97442 26.1344 8.94415 26.0865 8.9235 26.0338C8.90285 25.9811 8.89222 25.9246 8.89222 25.8676V23.3812C8.89222 23.3242 8.88159 23.2677 8.86094 23.215C8.84029 23.1623 8.81003 23.1144 8.77187 23.0741C8.73372 23.0337 8.68842 23.0017 8.63856 22.9799C8.58871 22.9581 8.53528 22.9468 8.48132 22.9468H7.41091C7.35694 22.9468 7.30351 22.9581 7.25366 22.9799C7.2038 23.0017 7.15851 23.0337 7.12035 23.0741C7.0822 23.1144 7.05193 23.1623 7.03128 23.215C7.01063 23.2677 7 23.3242 7 23.3812V27.7689C7 27.8841 7.04329 27.9946 7.12035 28.0761C7.19741 28.1575 7.30193 28.2033 7.41091 28.2033H12.1651C12.2741 28.2033 12.3786 28.1575 12.4556 28.0761C12.5327 27.9946 12.576 27.8841 12.576 27.7689V26.475C12.576 26.3598 12.6193 26.2493 12.6963 26.1679C12.7734 26.0864 12.8779 26.0406 12.9869 26.0406H18.3972C18.5061 26.0406 18.6107 25.9949 18.6877 25.9134C18.7648 25.8319 18.8081 25.7214 18.8081 25.6062V21.8557C18.8081 21.5556 18.6953 21.2677 18.4946 21.0555C18.2938 20.8433 18.0216 20.724 17.7377 20.724M17.4884 24.085C17.3945 24.1537 17.2827 24.1894 17.1686 24.1871H12.8999C12.8627 24.1871 12.827 24.1715 12.8007 24.1436C12.7743 24.1158 12.7595 24.078 12.7595 24.0387V23.2495C12.7595 23.2101 12.7743 23.1723 12.8007 23.1445C12.827 23.1167 12.8627 23.101 12.8999 23.101H17.1727C17.2869 23.0987 17.3989 23.1341 17.4932 23.2024C17.5599 23.2525 17.6143 23.3187 17.6518 23.3955C17.6894 23.4723 17.709 23.5576 17.709 23.6441C17.709 23.7305 17.6894 23.8158 17.6518 23.8926C17.6143 23.9695 17.5599 24.0357 17.4932 24.0857" fill="#05676F"/>
</svg>
