<svg width="30" height="30" viewBox="0 0 30 30" fill="none" xmlns="http://www.w3.org/2000/svg">
<path d="M15 17.1L19.35 21.45C19.625 21.725 19.975 21.8625 20.4 21.8625C20.825 21.8625 21.175 21.725 21.45 21.45C21.725 21.175 21.8625 20.825 21.8625 20.4C21.8625 19.975 21.725 19.625 21.45 19.35L17.1 15L21.45 10.65C21.725 10.375 21.8625 10.025 21.8625 9.6C21.8625 9.175 21.725 8.825 21.45 8.55C21.175 8.275 20.825 8.1375 20.4 8.1375C19.975 8.1375 19.625 8.275 19.35 8.55L15 12.9L10.65 8.55C10.375 8.275 10.025 8.1375 9.59999 8.1375C9.175 8.1375 8.825 8.275 8.55 8.55C8.275 8.825 8.1375 9.175 8.1375 9.6C8.1375 10.025 8.275 10.375 8.55 10.65L12.9 15L8.55 19.35C8.275 19.625 8.1375 19.975 8.1375 20.4C8.1375 20.825 8.275 21.175 8.55 21.45C8.825 21.725 9.175 21.8625 9.59999 21.8625C10.025 21.8625 10.375 21.725 10.65 21.45L15 17.1ZM15 30C12.925 30 10.975 29.606 9.15 28.818C7.325 28.03 5.7375 26.9615 4.3875 25.6125C3.0375 24.2635 1.969 22.676 1.182 20.85C0.395002 19.024 0.0010019 17.074 1.89873e-06 15C-0.000998101 12.926 0.393002 10.976 1.182 9.15C1.971 7.324 3.0395 5.7365 4.3875 4.3875C5.7355 3.0385 7.323 1.97 9.15 1.182C10.977 0.394 12.927 0 15 0C17.073 0 19.023 0.394 20.85 1.182C22.677 1.97 24.2645 3.0385 25.6125 4.3875C26.9605 5.7365 28.0295 7.324 28.8195 9.15C29.6095 10.976 30.003 12.926 30 15C29.997 17.074 29.603 19.024 28.818 20.85C28.033 22.676 26.9645 24.2635 25.6125 25.6125C24.2605 26.9615 22.673 28.0305 20.85 28.8195C19.027 29.6085 17.077 30.002 15 30Z" fill="#9B9898"/>
</svg>
