<svg width="24" height="24" viewBox="0 0 24 24" fill="none" xmlns="http://www.w3.org/2000/svg">
<path fill-rule="evenodd" clip-rule="evenodd" d="M9.6 1.8C10.2924 1.28071 11.1345 1 12 1C12.8655 1 13.7076 1.28071 14.4 1.8L20.4 6.3C21.4072 7.05542 22 8.24097 22 9.5V19C22 20.6569 20.6569 22 19 22H15C14.4477 22 14 21.5523 14 21V15C14 13.8954 13.1046 13 12 13C10.8954 13 10 13.8954 10 15V21C10 21.5523 9.55228 22 9 22H5C3.34315 22 2 20.6569 2 19V9.5C2 8.24097 2.59278 7.05542 3.6 6.3L9.6 1.8ZM12 3C11.5673 3 11.1462 3.14036 10.8 3.4L4.8 7.9C4.29639 8.27771 4 8.87049 4 9.5V19C4 19.5523 4.44772 20 5 20H8V15C8 12.7909 9.79086 11 12 11C14.2091 11 16 12.7909 16 15V20H19C19.5523 20 20 19.5523 20 19V9.5C20 8.87048 19.7036 8.27771 19.2 7.9L13.2 3.4C12.8538 3.14036 12.4327 3 12 3Z"  fill="currentColor"
 />
</svg>
