<svg width="36" height="40" viewBox="0 0 36 40" fill="none" xmlns="http://www.w3.org/2000/svg">
<path d="M18 0.5C21.4341 0.5 24.3023 1.68132 26.3105 3.68945C28.3188 5.69772 29.5 8.56582 29.5 12V16C29.5 16.4133 29.5995 16.7845 29.8652 17.1777C30.1142 17.5461 30.5035 17.9246 31.0537 18.3838L31.0576 18.3867C31.1302 18.4461 31.3174 18.5903 31.4941 18.7275C31.6802 18.872 31.8562 19.0093 31.9287 19.0703L31.9307 19.0723C33.1526 20.0907 34.037 21.0619 34.6201 22.1475C35.2 23.2271 35.4981 24.4518 35.5 26.001C35.5035 29.0337 33.0048 31.511 30.002 31.5H23.0088L23.1826 32.1328V32.1348C23.1831 32.1366 23.1845 32.1396 23.1855 32.1436C23.1878 32.1518 23.191 32.1652 23.1953 32.1816C23.204 32.2146 23.2163 32.2635 23.2314 32.3242C23.2618 32.4463 23.3024 32.6169 23.3428 32.8105C23.4257 33.2082 23.5 33.6656 23.5 34C23.5 37.0379 21.0379 39.5 18 39.5C14.9623 39.4998 12.5 37.0377 12.5 34C12.5 33.6683 12.5782 33.2129 12.665 32.8154C12.7073 32.622 12.7495 32.451 12.7812 32.3291C12.7971 32.2683 12.8103 32.2194 12.8193 32.1865C12.8238 32.1703 12.8278 32.1576 12.8301 32.1494C12.8312 32.1455 12.8315 32.1425 12.832 32.1406L12.833 32.1387L13.0166 31.5H6.00586C2.98897 31.4649 0.524405 29.0169 0.5 25.9961C0.487363 24.4356 0.778507 23.2164 1.35645 22.1436C1.93828 21.0636 2.82944 20.0982 4.06934 19.0732C4.15156 19.0052 4.32642 18.856 4.49219 18.7148L4.88086 18.3857C5.43859 17.9255 5.84235 17.5515 6.10352 17.1904C6.38391 16.8026 6.5 16.4299 6.5 16V12C6.50001 8.56586 7.68133 5.6977 9.68945 3.68945C11.6976 1.68128 14.5657 0.500096 18 0.5ZM18 31.5C16.6201 31.5002 15.5001 32.62 15.5 34C15.5 35.38 16.62 36.4998 18 36.5C19.3801 36.5 20.5 35.3801 20.5 34C20.4999 32.6199 19.3801 31.5 18 31.5ZM18 3.5C15.4453 3.50009 13.3098 4.31246 11.8115 5.81055C10.3132 7.30882 9.50001 9.44472 9.5 12V16L9.49023 16.3623C9.44373 17.1839 9.23468 17.8534 8.86328 18.4756C8.48522 19.1089 7.92712 19.7138 7.15234 20.3848L6.80664 20.6768C6.72812 20.7416 6.53818 20.9053 6.3584 21.0605C6.17177 21.2217 5.9961 21.3744 5.93262 21.4268H5.93164C5.07042 22.1389 4.44565 22.7743 4.04688 23.5C3.64097 24.2388 3.49217 25.0275 3.5 26.0039C3.51122 27.3879 4.60749 28.4826 5.99414 28.5H29.999C31.3444 28.5048 32.5025 27.3658 32.5 25.999C32.4989 25.0218 32.3463 24.2348 31.9414 23.498C31.5432 22.7736 30.9232 22.1391 30.0703 21.4277C29.9922 21.3627 29.7893 21.2015 29.5957 21.0479L29.1318 20.6768C28.1936 19.8941 27.5409 19.2041 27.1201 18.4775C26.7056 17.7617 26.5 16.9839 26.5 16V12C26.5 9.4449 25.6885 7.30882 24.1904 5.81055C22.6921 4.31225 20.5553 3.5 18 3.5Z" fill="white" stroke="white"/>
</svg>
