<svg width="20" height="19" viewBox="0 0 20 19" fill="none" xmlns="http://www.w3.org/2000/svg">
<g filter="url(#filter0_d_326_8)">
<path d="M2.5 10.1667H5C5.44203 10.1667 5.86595 10.3423 6.17851 10.6548C6.49107 10.9674 6.66667 11.3913 6.66667 11.8333V14.3333C6.66667 14.7754 6.49107 15.1993 6.17851 15.5118C5.86595 15.8244 5.44203 16 5 16H4.16667C3.72464 16 3.30072 15.8244 2.98816 15.5118C2.67559 15.1993 2.5 14.7754 2.5 14.3333V8.5C2.5 6.51088 3.29018 4.60322 4.6967 3.1967C6.10322 1.79018 8.01088 1 10 1C11.9891 1 13.8968 1.79018 15.3033 3.1967C16.7098 4.60322 17.5 6.51088 17.5 8.5V14.3333C17.5 14.7754 17.3244 15.1993 17.0118 15.5118C16.6993 15.8244 16.2754 16 15.8333 16H15C14.558 16 14.134 15.8244 13.8215 15.5118C13.5089 15.1993 13.3333 14.7754 13.3333 14.3333V11.8333C13.3333 11.3913 13.5089 10.9674 13.8215 10.6548C14.134 10.3423 14.558 10.1667 15 10.1667H17.5" stroke="white" stroke-width="2" stroke-linecap="round" stroke-linejoin="round" shape-rendering="crispEdges"/>
</g>
<defs>
<filter id="filter0_d_326_8" x="-2.5" y="0" width="25" height="25" filterUnits="userSpaceOnUse" color-interpolation-filters="sRGB">
<feFlood flood-opacity="0" result="BackgroundImageFix"/>
<feColorMatrix in="SourceAlpha" type="matrix" values="0 0 0 0 0 0 0 0 0 0 0 0 0 0 0 0 0 0 127 0" result="hardAlpha"/>
<feOffset dy="4"/>
<feGaussianBlur stdDeviation="2"/>
<feComposite in2="hardAlpha" operator="out"/>
<feColorMatrix type="matrix" values="0 0 0 0 0 0 0 0 0 0 0 0 0 0 0 0 0 0 0.25 0"/>
<feBlend mode="normal" in2="BackgroundImageFix" result="effect1_dropShadow_326_8"/>
<feBlend mode="normal" in="SourceGraphic" in2="effect1_dropShadow_326_8" result="shape"/>
</filter>
</defs>
</svg>
