<svg width="21" height="20" viewBox="0 0 21 20" fill="none" xmlns="http://www.w3.org/2000/svg">
<path d="M10.4998 20C16.2339 20 21 15.4706 21 10C21 4.53903 16.2234 0 10.4892 0C4.74544 0 0 4.53903 0 10C0 15.4706 4.75554 20 10.4998 20ZM10.4901 11.4708C9.94416 11.4708 9.64592 11.1667 9.62484 10.6467L9.48077 5.8044C9.46012 5.26479 9.89233 4.88288 10.4791 4.88288C11.0558 4.88288 11.4981 5.27483 11.4779 5.81402L11.3334 10.6475C11.3128 11.1767 11.004 11.4712 10.4897 11.4712M10.4897 15.0791C9.89233 15.0791 9.33626 14.6281 9.33626 14.0199C9.33626 13.4117 9.88222 12.9616 10.4897 12.9616C11.0866 12.9616 11.6422 13.4025 11.6422 14.0199C11.6422 14.6377 11.076 15.0791 10.4897 15.0791Z" fill="#05676F"/>
</svg>
