<svg width="20" height="20" viewBox="0 0 20 20" fill="none" xmlns="http://www.w3.org/2000/svg">
<g clip-path="url(#clip0_291_2016)">
<path d="M10.0005 0C7.53892 0.00253422 5.16488 0.913619 3.33352 2.55859V0.833407C3.33381 0.723542 3.31237 0.614745 3.27045 0.513194C3.22853 0.411642 3.16695 0.319347 3.08924 0.241686C2.93224 0.0868956 2.7206 0.00012717 2.50013 0.00012717C2.27965 0.00012717 2.06805 0.0868956 1.91104 0.241686C1.83333 0.319347 1.77176 0.411642 1.72984 0.513194C1.68791 0.614745 1.66647 0.723542 1.66676 0.833407V3.33369C1.66676 3.9968 1.93017 4.63272 2.39903 5.10161C2.8679 5.5705 3.50381 5.83392 4.16689 5.83392H6.66701C6.88713 5.83202 7.0981 5.74548 7.25613 5.59223C7.41261 5.43506 7.50047 5.2223 7.50047 5.00051C7.50047 4.77871 7.41261 4.56596 7.25613 4.40879C7.0981 4.25554 6.88713 4.169 6.66701 4.1671H4.16689C4.13844 4.16567 4.11037 4.16006 4.08356 4.15044C5.44089 2.78413 7.23027 1.9312 9.14634 1.73727C11.0624 1.54333 12.9864 2.02042 14.59 3.08705C16.1935 4.15368 17.3772 5.74376 17.9391 7.58593C18.501 9.42811 18.4062 11.4082 17.6709 13.1882C16.9355 14.9683 15.6053 16.438 13.9072 17.3465C12.209 18.2551 10.2483 18.546 8.35949 18.1699C6.47071 17.7937 4.771 16.7737 3.55043 15.284C2.32986 13.7942 1.6641 11.927 1.66676 10.001C1.66705 9.89115 1.64561 9.78235 1.60369 9.6808C1.56177 9.57925 1.50019 9.48696 1.42248 9.4093C1.26554 9.25438 1.05388 9.16755 0.833367 9.16755C0.612853 9.16755 0.401223 9.25438 0.244283 9.4093C0.166575 9.48696 0.104999 9.57925 0.0630759 9.6808C0.0211523 9.78235 -0.000289063 9.89115 2.94289e-06 10.001C2.94289e-06 11.979 0.586521 13.9127 1.68539 15.5573C2.78426 17.202 4.34613 18.4838 6.17349 19.2408C8.00085 19.9977 10.0116 20.1958 11.9515 19.8099C13.8914 19.4241 15.6734 18.4715 17.0719 17.0729C18.4705 15.6742 19.423 13.8921 19.8089 11.9521C20.1948 10.0121 19.9967 8.00129 19.2398 6.17384C18.4829 4.34639 17.2011 2.78444 15.5565 1.68551C13.9119 0.58658 11.9784 0 10.0005 0Z" fill="#05676F"/>
<path d="M12.3753 8.48053C12.4176 8.52516 12.4757 8.55154 12.5372 8.55407C12.5986 8.5566 12.6587 8.53508 12.7045 8.49408L13.4592 7.73931C13.4778 7.72203 13.4894 7.69858 13.4919 7.67337C13.4943 7.64815 13.4876 7.62289 13.4728 7.60232C13.3493 7.45126 13.0478 7.13352 12.9655 7.0533L12.8279 6.91787C12.6634 6.76681 12.5675 6.71212 12.5264 6.76681L12.3342 6.93141C12.2248 7.02726 12.0461 7.21946 11.7305 7.52158C11.7098 7.54587 11.694 7.57402 11.6842 7.60441C11.6743 7.6348 11.6706 7.66684 11.6731 7.69868C11.6757 7.73052 11.6845 7.76155 11.6991 7.78997C11.7137 7.81839 11.7337 7.84366 11.7581 7.86432C11.9637 8.08379 12.1694 8.28954 12.3753 8.48157" fill="#05676F"/>
<path d="M14.7453 9.18484H10.6425C10.5476 9.18292 10.4573 9.14348 10.3914 9.07514C10.3255 9.0068 10.2894 8.91514 10.2909 8.82022C10.289 8.72686 10.2506 8.63796 10.1839 8.57262C10.1172 8.50727 10.0275 8.47068 9.93415 8.4707H9.06952C8.9749 8.4707 8.88415 8.5083 8.81724 8.57521C8.75033 8.64212 8.71273 8.73288 8.71273 8.82751V13.3832C8.71273 13.4778 8.67514 13.5686 8.60823 13.6355C8.54132 13.7024 8.45057 13.74 8.35594 13.74H7.46475C7.37013 13.74 7.27938 13.7024 7.21246 13.6355C7.14555 13.5686 7.10796 13.4778 7.10796 13.3832V11.3517C7.10796 11.2571 7.07037 11.1663 7.00346 11.0994C6.93655 11.0325 6.8458 10.9949 6.75117 10.9949H5.83238C5.73775 10.9949 5.647 11.0325 5.58009 11.0994C5.51318 11.1663 5.47559 11.2571 5.47559 11.3517V14.9323C5.47559 15.0269 5.51318 15.1177 5.58009 15.1846C5.647 15.2515 5.73775 15.2891 5.83238 15.2891H9.93415C10.0288 15.2891 10.1195 15.2515 10.1864 15.1846C10.2534 15.1177 10.2909 15.0269 10.2909 14.9323V13.877C10.2909 13.8301 10.3001 13.7837 10.318 13.7404C10.3359 13.697 10.3621 13.6577 10.3953 13.6245C10.4284 13.5914 10.4678 13.5651 10.5111 13.5472C10.5544 13.5293 10.6009 13.5201 10.6477 13.5202H15.312C15.4067 13.5202 15.4974 13.4826 15.5643 13.4157C15.6312 13.3488 15.6688 13.258 15.6688 13.1634V10.1084C15.6688 9.98709 15.6449 9.867 15.5985 9.75495C15.5521 9.6429 15.4841 9.54109 15.3983 9.45534C15.3126 9.36958 15.2108 9.30155 15.0987 9.25514C14.9867 9.20873 14.8666 9.18484 14.7453 9.18484ZM14.5302 11.9278C14.4492 11.9839 14.3527 12.0131 14.2542 12.0112H10.568C10.5359 12.0112 10.505 11.9984 10.4822 11.9756C10.4595 11.9529 10.4467 11.922 10.4467 11.8898V11.2455C10.4467 11.2133 10.4595 11.1824 10.4822 11.1597C10.505 11.1369 10.5359 11.1241 10.568 11.1241H14.2542C14.3526 11.122 14.4492 11.151 14.5302 11.2069C14.5877 11.2478 14.6346 11.3019 14.667 11.3646C14.6994 11.4273 14.7162 11.4968 14.7162 11.5674C14.7162 11.6379 14.6994 11.7075 14.667 11.7702C14.6346 11.8329 14.5877 11.887 14.5302 11.9278Z" fill="#05676F"/>
<path d="M5.47559 8.27036V7.55935L7.09338 7.33641V6.43163L9.27526 5.91699V7.78021L5.47559 8.27036ZM7.77987 7.24057L8.58877 7.14264V6.79938L7.77987 6.99523V7.24057Z" fill="#05676F"/>
</g>
<defs>
<clipPath id="clip0_291_2016">
<rect width="20" height="20" fill="white"/>
</clipPath>
</defs>
</svg>
