<svg width="59" height="29" viewBox="0 0 59 29" fill="none" xmlns="http://www.w3.org/2000/svg">
<g clip-path="url(#clip0_305_471)">
<path d="M21.4679 4.07617C21.9397 4.24154 22.2539 4.44143 22.6162 4.7322C22.7218 4.81658 22.8273 4.90095 22.936 4.98788C23.0449 5.07616 23.1538 5.16444 23.266 5.25539C23.3732 5.34096 23.4804 5.42654 23.5909 5.51471C24.4938 6.24049 25.3465 6.9543 26.039 7.81718C26.7916 8.65742 27.5747 9.39601 28.8812 9.61889C31.1532 9.86709 33.4967 9.76628 35.7798 9.66653C35.6869 9.5507 35.6869 9.5507 35.5921 9.43252C35.3077 9.07179 35.0327 8.70697 34.7575 8.34173C34.66 8.22043 34.5625 8.09912 34.462 7.97414C33.5436 6.73355 33.7352 6.29525 33.7352 4.6585C37.2533 4.6585 40.7714 4.6585 44.3961 4.6585C44.3961 6.75489 44.3961 6.75489 42.4976 9.55007C45.2446 9.5885 47.9916 9.62694 50.8219 9.66653C50.8219 8.01388 50.8219 6.36123 50.8219 4.6585C53.3761 4.6585 55.9303 4.6585 58.562 4.6585C58.562 7.07983 58.562 9.50115 58.562 11.9959C45.9836 11.9959 33.4052 11.9959 20.4456 11.9959C20.7348 11.7268 21.0239 11.4578 21.3219 11.1806C21.4182 11.0269 21.5146 10.8731 21.6139 10.7147C21.5296 10.6488 21.4453 10.5829 21.3584 10.515C21.1957 10.3869 21.1957 10.3869 21.0298 10.2561C20.9213 10.171 20.8129 10.0859 20.7012 9.99819C20.4456 9.783 20.4456 9.783 20.4456 9.66653C21.6023 9.6281 22.7589 9.58967 23.9506 9.55007C22.6858 8.47001 21.4239 7.39588 20.0839 6.37475C19.9969 6.30713 19.91 6.2395 19.8204 6.16983C19.7435 6.11107 19.6666 6.05231 19.5873 5.99177C19.4233 5.82316 19.4233 5.82316 19.4233 5.47376C19.6481 5.28178 19.6481 5.28178 19.9527 5.08069C20.0585 5.00998 20.1643 4.93927 20.2733 4.86641C20.3784 4.7978 20.4834 4.72919 20.5917 4.6585C20.7621 4.54449 20.9325 4.43046 21.1028 4.31638C21.2233 4.23711 21.3438 4.15784 21.4679 4.07617ZM37.5323 6.98782C37.9782 7.86177 38.4469 8.71291 38.9926 9.55007C39.4413 9.11894 39.7328 8.63692 40.0423 8.13792C40.0961 8.05309 40.1498 7.96827 40.2052 7.88088C40.4957 7.45517 40.4957 7.45517 40.5991 6.98782C39.587 6.98782 38.575 6.98782 37.5323 6.98782ZM53.4506 6.98782C53.4506 7.87179 53.4506 8.75577 53.4506 9.66653C54.2217 9.66653 54.9927 9.66653 55.7872 9.66653C55.7872 8.78256 55.7872 7.89858 55.7872 6.98782C55.0161 6.98782 54.245 6.98782 53.4506 6.98782Z" fill="white"/>
<path d="M5.84158 18.1685C6.80545 18.1685 7.76931 18.1685 8.76238 18.1685C8.76238 18.5144 8.76238 18.8603 8.76238 19.2166C11.9913 19.2166 15.2202 19.2166 18.547 19.2166C18.547 21.3305 18.547 23.4444 18.547 25.6223C15.3181 25.6223 12.0892 25.6223 8.76238 25.6223C8.76238 26.4678 8.76238 27.3134 8.76238 28.1845C5.87079 28.1845 2.97921 28.1845 0 28.1845C0 26.1091 0 24.0337 0 21.8954C1.01205 21.8954 2.02411 21.8954 3.06683 21.8954C3.06683 23.2021 3.06683 24.5089 3.06683 25.8552C3.9825 25.8552 4.89817 25.8552 5.84158 25.8552C5.84158 23.3186 5.84158 20.782 5.84158 18.1685ZM8.76238 21.6624C8.76238 22.2005 8.76238 22.7386 8.76238 23.293C11.0275 23.293 13.2925 23.293 15.6262 23.293C15.6262 22.7549 15.6262 22.2168 15.6262 21.6624C13.3612 21.6624 11.0961 21.6624 8.76238 21.6624Z" fill="white"/>
<path d="M50.822 13.8594C51.8341 13.8594 52.8461 13.8594 53.8888 13.8594C53.8888 17.7412 53.8888 21.623 53.8888 25.6224C50.8527 25.6224 47.8165 25.6224 44.6884 25.6224C44.6884 26.737 44.6884 27.8516 44.6884 28.9999C42.6642 28.9999 40.6401 28.9999 38.5547 28.9999C38.5547 28.1928 38.5547 27.3857 38.5547 26.5542C39.5667 26.5542 40.5788 26.5542 41.6215 26.5542C41.6215 23.8638 41.6215 21.1734 41.6215 18.4015C42.6336 18.4015 43.6456 18.4015 44.6884 18.4015C44.6884 20.0158 44.6884 21.63 44.6884 23.2931C46.7125 23.2931 48.7366 23.2931 50.822 23.2931C50.822 20.18 50.822 17.0668 50.822 13.8594Z" fill="white"/>
<path d="M5.69554 4.65869C8.24978 4.65869 10.804 4.65869 13.4356 4.65869C13.4356 6.31134 13.4356 7.96399 13.4356 9.66672C15.6043 9.66672 17.773 9.66672 20.0074 9.66672C19.2772 10.2491 19.2772 10.2491 19.0034 10.4238C18.8044 10.5989 18.8044 10.5989 18.8391 10.8751C19.0276 11.2697 19.3349 11.4753 19.7153 11.7631C19.7153 11.84 19.7153 11.9168 19.7153 11.996C13.2093 11.996 6.70322 11.996 0 11.996C0 11.2274 0 10.4587 0 9.66672C1.87953 9.66672 3.75906 9.66672 5.69554 9.66672C5.69554 8.01407 5.69554 6.36142 5.69554 4.65869ZM8.4703 6.98801C8.4703 7.87198 8.4703 8.75596 8.4703 9.66672C9.19319 9.66672 9.91609 9.66672 10.6609 9.66672C10.6609 8.78275 10.6609 7.89877 10.6609 6.98801C9.93799 6.98801 9.2151 6.98801 8.4703 6.98801Z" fill="white"/>
<path d="M20.5918 13.7432C21.6039 13.7432 22.6159 13.7432 23.6586 13.7432C23.6586 16.8947 23.6586 20.0463 23.6586 23.2934C25.1044 23.2934 26.5502 23.2934 28.0398 23.2934C27.7507 23.5624 27.4615 23.8314 27.1636 24.1086C26.9349 24.3887 26.9349 24.3887 27.0175 24.691C27.2633 24.9273 27.5249 25.1316 27.8111 25.337C27.8865 25.3928 27.962 25.4487 28.0398 25.5062C28.0398 25.5447 28.0398 25.5831 28.0398 25.6227C25.582 25.6227 23.1241 25.6227 20.5918 25.6227C20.5918 21.7024 20.5918 17.7822 20.5918 13.7432Z" fill="white"/>
<path d="M56.3489 13.8159C56.4556 13.8163 56.5623 13.8166 56.6723 13.817C56.7887 13.817 56.905 13.8171 57.0249 13.8172C57.2073 13.82 57.2073 13.82 57.3934 13.8229C57.5758 13.8223 57.5758 13.8223 57.7619 13.8217C58.6688 13.8282 58.6688 13.8282 58.9998 14.0922C59.0289 14.4489 59.0396 14.7951 59.0376 15.152C59.0381 15.2619 59.0386 15.3717 59.0392 15.4849C59.0405 15.8493 59.0396 16.2136 59.0386 16.578C59.0388 16.8304 59.0391 17.0828 59.0395 17.3352C59.0399 17.8647 59.0393 18.3942 59.0379 18.9237C59.0362 19.6036 59.0372 20.2835 59.039 20.9634C59.04 21.4848 59.0397 22.0061 59.0389 22.5274C59.0387 22.7782 59.039 23.0289 59.0396 23.2797C59.0404 23.6297 59.0393 23.9796 59.0376 24.3296C59.0382 24.434 59.0388 24.5385 59.0394 24.6461C59.0332 25.3628 59.0332 25.3628 58.7077 25.6223C58.2907 25.6486 57.8925 25.6601 57.4755 25.6587C57.3054 25.6615 57.3054 25.6615 57.1318 25.6644C56.2973 25.665 56.2973 25.665 55.9735 25.4737C55.6383 25.1129 55.7278 24.6556 55.7326 24.2231C55.7321 24.1157 55.7315 24.0083 55.731 23.8977C55.7298 23.542 55.7318 23.1864 55.7339 22.8308C55.734 22.5841 55.7339 22.3373 55.7337 22.0906C55.7337 21.5733 55.7352 21.0559 55.7379 20.5386C55.7412 19.8748 55.7413 19.2109 55.7403 18.5471C55.7398 18.0375 55.7407 17.528 55.7422 17.0184C55.7427 16.7736 55.7429 16.5288 55.7427 16.284C55.7426 15.9421 55.7445 15.6003 55.7468 15.2585C55.7465 15.1568 55.7461 15.0552 55.7457 14.9504C55.7573 13.911 55.7573 13.911 56.3489 13.8159Z" fill="white"/>
<path d="M34.6113 18.2852C35.6716 18.2852 36.7318 18.2852 37.8242 18.2852C37.8242 20.7065 37.8242 23.1278 37.8242 25.6225C35.7037 25.6225 33.5832 25.6225 31.3984 25.6225C32.2747 24.8072 32.2747 24.8072 32.5668 24.5743C32.4316 23.9956 32.4316 23.9956 31.5445 23.2932C32.5565 23.2932 33.5686 23.2932 34.6113 23.2932C34.6113 21.6405 34.6113 19.9879 34.6113 18.2852Z" fill="white"/>
<path d="M10.2227 26.7871C16.9215 26.7871 23.6203 26.7871 30.5222 26.7871C30.5222 27.2483 30.5222 27.7095 30.5222 28.1847C23.8233 28.1847 17.1245 28.1847 10.2227 28.1847C10.2227 27.7235 10.2227 27.2623 10.2227 26.7871Z" fill="#BFBFBF"/>
<path d="M28.0396 1.74707C34.8348 1.74707 41.63 1.74707 48.6311 1.74707C48.6311 2.16984 48.6311 2.59261 48.6311 3.02819C41.8359 3.02819 35.0407 3.02819 28.0396 3.02819C28.0396 2.60542 28.0396 2.18265 28.0396 1.74707Z" fill="#BEBEBE"/>
<path d="M0 1.74707C5.39762 1.74707 10.7952 1.74707 16.3564 1.74707C16.3564 2.16984 16.3564 2.59261 16.3564 3.02819C10.9588 3.02819 5.56119 3.02819 0 3.02819C0 2.60542 0 2.18265 0 1.74707Z" fill="#BEBEBE"/>
<path d="M45.7104 26.7871C50.096 26.7871 54.4816 26.7871 59.0001 26.7871C59.0001 27.2483 59.0001 27.7095 59.0001 28.1847C54.6145 28.1847 50.2289 28.1847 45.7104 28.1847C45.7104 27.7235 45.7104 27.2623 45.7104 26.7871Z" fill="#BFBFBF"/>
<path d="M58.708 1.91878e-05C58.7586 0.98779 58.663 2.08751 58.2699 3.02813C55.7157 3.02813 53.1614 3.02813 50.5298 3.02813C50.5298 2.21287 50.5298 2.21287 50.6758 1.74701C51.7843 1.74701 52.8927 1.74701 54.0347 1.74701C54.0347 1.43954 54.0347 1.13207 54.0347 0.81528C54.1078 0.524116 54.1078 0.524116 54.1808 0.349417C55.7013 0.156375 57.1668 -0.0194899 58.708 1.91878e-05ZM56.1341 1.33938C55.955 1.35559 55.955 1.35559 55.7724 1.37213C55.6809 1.38054 55.5894 1.38895 55.4951 1.39761C55.4951 1.51291 55.4951 1.62821 55.4951 1.74701C55.9771 1.74701 56.459 1.74701 56.9555 1.74701C57.0037 1.59327 57.0519 1.43954 57.1016 1.28114C56.7739 1.28114 56.4596 1.3097 56.1341 1.33938Z" fill="#BEBEBE"/>
<path d="M12.7056 15.7227C13.3313 15.8817 13.6448 16.0961 14.0656 16.4942C14.1674 16.5894 14.2692 16.6846 14.3742 16.7827C14.488 16.8921 14.488 16.8921 14.6041 17.0038C14.3912 17.3903 14.1229 17.6619 13.7552 17.9646C13.6579 18.0469 13.5606 18.1292 13.4603 18.2139C13.1437 18.4014 13.1437 18.4014 12.7791 18.4564C12.3008 18.3844 12.1246 18.2376 11.7928 17.9573C11.6927 17.8749 11.5925 17.7925 11.4893 17.7076C11.2452 17.4696 11.2452 17.4696 11.0991 17.1202C11.2656 16.7219 11.4236 16.6208 11.8202 16.3559C12.1263 16.1499 12.4222 15.9486 12.7056 15.7227Z" fill="#BFBFBF"/>
<path d="M29.7827 24.6836C30.2144 24.8609 30.4957 25.1005 30.8141 25.3897C30.8141 25.4665 30.8141 25.5434 30.8141 25.6226C30.0912 25.6226 29.3683 25.6226 28.6235 25.6226C29.2029 24.6985 29.2029 24.6985 29.7827 24.6836Z" fill="white"/>
<path d="M28.77 23.293C29.4929 23.293 30.2158 23.293 30.9606 23.293C30.1391 23.9481 30.1391 23.9481 29.6463 24.2247C29.4998 24.0915 29.3538 23.958 29.2081 23.8243C29.1268 23.75 29.0455 23.6757 28.9617 23.5991C28.77 23.4094 28.77 23.4094 28.77 23.293Z" fill="white"/>
</g>
<defs>
<clipPath id="clip0_305_471">
<rect width="59" height="29" fill="white"/>
</clipPath>
</defs>
</svg>
