<svg width="76" height="42" viewBox="0 0 76 42" fill="none" xmlns="http://www.w3.org/2000/svg">
<g clip-path="url(#clip0_141_686)">
<path d="M27.6534 5.90332C28.2612 6.14283 28.666 6.43232 29.1327 6.85343C29.2686 6.97563 29.4045 7.09783 29.5445 7.22373C29.6848 7.35158 29.8251 7.47943 29.9697 7.61115C30.1078 7.73509 30.2459 7.85902 30.3881 7.98672C31.5512 9.03786 32.6496 10.0716 33.5417 11.3213C34.5111 12.5382 35.5198 13.6079 37.2028 13.9307C40.1294 14.2902 43.1482 14.1442 46.0891 13.9997C45.9694 13.8319 45.9694 13.8319 45.8473 13.6608C45.481 13.1384 45.1268 12.61 44.7722 12.081C44.6466 11.9053 44.521 11.7297 44.3916 11.5487C43.2086 9.75194 43.4554 9.11716 43.4554 6.74669C47.9872 6.74669 52.519 6.74669 57.1881 6.74669C57.1881 9.78284 57.1881 9.78284 54.7425 13.831C58.2811 13.8867 61.8196 13.9424 65.4653 13.9997C65.4653 11.6062 65.4653 9.21272 65.4653 6.74669C68.7555 6.74669 72.0457 6.74669 75.4356 6.74669C75.4356 10.2534 75.4356 13.7602 75.4356 17.3732C59.2329 17.3732 43.0303 17.3732 26.3366 17.3732C26.7091 16.9836 27.0816 16.5939 27.4653 16.1925C27.5895 15.9698 27.7136 15.7472 27.8416 15.5178C27.7329 15.4223 27.6243 15.3269 27.5123 15.2285C27.3028 15.0429 27.3028 15.0429 27.0891 14.8536C26.9494 14.7303 26.8097 14.6071 26.6658 14.48C26.3366 14.1684 26.3366 14.1684 26.3366 13.9997C27.8265 13.944 29.3164 13.8884 30.8515 13.831C29.2223 12.2668 27.5968 10.7112 25.8707 9.2323C25.7587 9.13436 25.6466 9.03642 25.5312 8.93551C25.4322 8.85041 25.3331 8.76532 25.231 8.67764C25.0198 8.43344 25.0198 8.43344 25.0198 7.92742C25.3093 7.64937 25.3093 7.64937 25.7017 7.35814C25.838 7.25573 25.9743 7.15332 26.1147 7.0478C26.25 6.94844 26.3853 6.84907 26.5247 6.74669C26.7442 6.58158 26.9637 6.41642 27.1831 6.25121C27.3383 6.13641 27.4935 6.0216 27.6534 5.90332ZM48.3465 10.1202C48.921 11.3859 49.5247 12.6186 50.2277 13.831C50.8056 13.2066 51.1811 12.5085 51.5798 11.7859C51.649 11.663 51.7183 11.5402 51.7896 11.4136C52.1639 10.797 52.1639 10.797 52.297 10.1202C50.9933 10.1202 49.6897 10.1202 48.3465 10.1202ZM68.8515 10.1202C68.8515 11.4004 68.8515 12.6807 68.8515 13.9997C69.8447 13.9997 70.838 13.9997 71.8614 13.9997C71.8614 12.7195 71.8614 11.4392 71.8614 10.1202C70.8681 10.1202 69.8748 10.1202 68.8515 10.1202Z" fill="#05676F"/>
<path d="M7.52475 26.3135C8.76634 26.3135 10.0079 26.3135 11.2871 26.3135C11.2871 26.8144 11.2871 27.3154 11.2871 27.8315C15.4464 27.8315 19.6057 27.8315 23.8911 27.8315C23.8911 30.893 23.8911 33.9544 23.8911 37.1087C19.7318 37.1087 15.5725 37.1087 11.2871 37.1087C11.2871 38.3332 11.2871 39.5578 11.2871 40.8195C7.56238 40.8195 3.83762 40.8195 0 40.8195C0 37.8137 0 34.8079 0 31.7111C1.30366 31.7111 2.60733 31.7111 3.95049 31.7111C3.95049 33.6036 3.95049 35.4961 3.95049 37.446C5.13 37.446 6.3095 37.446 7.52475 37.446C7.52475 33.7723 7.52475 30.0985 7.52475 26.3135ZM11.2871 31.3737C11.2871 32.153 11.2871 32.9323 11.2871 33.7352C14.2049 33.7352 17.1226 33.7352 20.1287 33.7352C20.1287 32.9559 20.1287 32.1766 20.1287 31.3737C17.211 31.3737 14.2933 31.3737 11.2871 31.3737Z" fill="#05676F"/>
<path d="M65.4653 20.0723C66.769 20.0723 68.0726 20.0723 69.4158 20.0723C69.4158 25.6942 69.4158 31.3161 69.4158 37.1084C65.5048 37.1084 61.5938 37.1084 57.5643 37.1084C57.5643 38.7226 57.5643 40.3368 57.5643 42C54.957 42 52.3497 42 49.6633 42C49.6633 40.8311 49.6633 39.6621 49.6633 38.4578C50.967 38.4578 52.2707 38.4578 53.6138 38.4578C53.6138 34.5614 53.6138 30.665 53.6138 26.6506C54.9175 26.6506 56.2212 26.6506 57.5643 26.6506C57.5643 28.9884 57.5643 31.3262 57.5643 33.7349C60.1716 33.7349 62.779 33.7349 65.4653 33.7349C65.4653 29.2262 65.4653 24.7176 65.4653 20.0723Z" fill="#05676F"/>
<path d="M7.33663 6.74707C10.6268 6.74707 13.917 6.74707 17.3069 6.74707C17.3069 9.14056 17.3069 11.5341 17.3069 14.0001C20.1005 14.0001 22.8941 14.0001 25.7723 14.0001C24.8317 14.8435 24.8317 14.8435 24.479 15.0965C24.2226 15.3502 24.2226 15.3502 24.2673 15.7501C24.5102 16.3217 24.906 16.6193 25.396 17.0362C25.396 17.1476 25.396 17.2589 25.396 17.3736C17.0153 17.3736 8.63465 17.3736 0 17.3736C0 16.2603 0 15.1471 0 14.0001C2.42109 14.0001 4.84218 14.0001 7.33663 14.0001C7.33663 11.6066 7.33663 9.21309 7.33663 6.74707ZM10.9109 10.1206C10.9109 11.4008 10.9109 12.681 10.9109 14.0001C11.8421 14.0001 12.7733 14.0001 13.7327 14.0001C13.7327 12.7198 13.7327 11.4396 13.7327 10.1206C12.8015 10.1206 11.8703 10.1206 10.9109 10.1206Z" fill="#05676F"/>
<path d="M72.5853 20.0098C72.7227 20.0103 72.8602 20.0108 73.0019 20.0113C73.1518 20.0114 73.3016 20.0115 73.456 20.0116C73.691 20.0157 73.691 20.0157 73.9307 20.0199C74.1657 20.019 74.1657 20.019 74.4055 20.0182C75.5736 20.0275 75.5736 20.0275 76.0001 20.4099C76.0375 20.9266 76.0513 21.428 76.0487 21.9448C76.0494 22.1039 76.0501 22.263 76.0507 22.4269C76.0524 22.9546 76.0513 23.4823 76.05 24.0101C76.0503 24.3756 76.0506 24.7411 76.0511 25.1067C76.0517 25.8735 76.0509 26.6404 76.0491 27.4072C76.047 28.3919 76.0482 29.3766 76.0504 30.3613C76.0518 31.1164 76.0514 31.8714 76.0504 32.6264C76.0501 32.9896 76.0505 33.3528 76.0513 33.7159C76.0523 34.2228 76.0508 34.7296 76.0487 35.2365C76.0495 35.3877 76.0503 35.539 76.051 35.6948C76.043 36.7328 76.043 36.7328 75.6238 37.1087C75.0866 37.1467 74.5736 37.1634 74.0366 37.1614C73.8174 37.1655 73.8174 37.1655 73.5938 37.1697C72.5188 37.1705 72.5188 37.1705 72.1017 36.8935C71.67 36.3709 71.7853 35.7086 71.7914 35.0823C71.7907 34.9268 71.79 34.7712 71.7893 34.6109C71.7878 34.0959 71.7904 33.5809 71.7931 33.0658C71.7932 32.7085 71.7931 32.3511 71.7928 31.9938C71.7928 31.2445 71.7948 30.4953 71.7982 29.7461C71.8025 28.7846 71.8026 27.8232 71.8013 26.8618C71.8007 26.1238 71.8019 25.3859 71.8038 24.6479C71.8045 24.2933 71.8047 23.9388 71.8044 23.5842C71.8043 23.0891 71.8067 22.5941 71.8098 22.099C71.8093 21.9517 71.8088 21.8045 71.8084 21.6528C71.8232 20.1474 71.8232 20.1474 72.5853 20.0098Z" fill="#05676F"/>
<path d="M44.5842 26.4814C45.9499 26.4814 47.3157 26.4814 48.7228 26.4814C48.7228 29.9882 48.7228 33.4949 48.7228 37.108C45.9913 37.108 43.2598 37.108 40.4456 37.108C41.5743 35.9272 41.5743 35.9272 41.9505 35.5899C41.7764 34.7517 41.7764 34.7517 40.6337 33.7345C41.9373 33.7345 43.241 33.7345 44.5842 33.7345C44.5842 31.341 44.5842 28.9475 44.5842 26.4814Z" fill="#05676F"/>
<path d="M13.1683 38.7949C21.7973 38.7949 30.4264 38.7949 39.3169 38.7949C39.3169 39.4629 39.3169 40.1308 39.3169 40.819C30.6878 40.819 22.0588 40.819 13.1683 40.819C13.1683 40.1511 13.1683 39.4831 13.1683 38.7949Z" fill="#BFBFBF"/>
<path d="M36.1188 2.53027C44.8719 2.53027 53.6251 2.53027 62.6435 2.53027C62.6435 3.14256 62.6435 3.75485 62.6435 4.3857C53.8904 4.3857 45.1372 4.3857 36.1188 4.3857C36.1188 3.77341 36.1188 3.16112 36.1188 2.53027Z" fill="#BEBEBE"/>
<path d="M0 2.53027C6.95287 2.53027 13.9057 2.53027 21.0693 2.53027C21.0693 3.14256 21.0693 3.75485 21.0693 4.3857C14.1164 4.3857 7.16356 4.3857 0 4.3857C0 3.77341 0 3.16112 0 2.53027Z" fill="#BEBEBE"/>
<path d="M34.4875 20.5573C34.7028 20.5582 34.7028 20.5582 34.9225 20.5592C35.1482 20.5591 35.1482 20.5591 35.3785 20.5591C35.8783 20.5592 36.3781 20.5605 36.8779 20.5619C37.2235 20.5622 37.569 20.5624 37.9146 20.5626C38.826 20.5632 39.7374 20.5649 40.6488 20.5667C41.5781 20.5685 42.5074 20.5692 43.4367 20.5701C45.2614 20.5719 47.0861 20.5748 48.9109 20.5783C48.8529 21.0493 48.794 21.5202 48.7345 21.991C48.7181 22.1249 48.7018 22.2589 48.6849 22.3968C48.5559 23.4076 48.5559 23.4076 48.3465 23.7831C47.8343 23.853 47.8343 23.853 47.206 23.8886C46.9982 23.9012 46.7904 23.9138 46.5763 23.9268C46.4155 23.935 46.2547 23.9433 46.0891 23.9518C46.0891 23.5065 46.0891 23.0612 46.0891 22.6024C45.9028 22.6581 45.7166 22.7137 45.5247 22.7711C45.1237 22.7862 44.7223 22.7909 44.3209 22.7902C44.1392 22.7903 44.1392 22.7903 43.9537 22.7903C43.5537 22.7902 43.1537 22.7889 42.7537 22.7876C42.4761 22.7873 42.1985 22.787 41.921 22.7868C41.1908 22.7862 40.4606 22.7845 39.7305 22.7827C38.9852 22.781 38.24 22.7802 37.4948 22.7793C36.0328 22.7775 34.5708 22.7746 33.1089 22.7711C33.1353 22.4372 33.163 22.1034 33.1912 21.7696C33.2065 21.5837 33.2217 21.3978 33.2375 21.2062C33.3402 20.4141 33.6779 20.5588 34.4875 20.5573Z" fill="#BFBFBF"/>
<path d="M58.8812 38.7949C64.5304 38.7949 70.1796 38.7949 76 38.7949C76 39.4629 76 40.1308 76 40.819C70.3508 40.819 64.7016 40.819 58.8812 40.819C58.8812 40.1511 58.8812 39.4831 58.8812 38.7949Z" fill="#BFBFBF"/>
<path d="M75.6238 0.000196162C75.6889 1.43076 75.5658 3.02345 75.0594 4.38574C71.7692 4.38574 68.479 4.38574 65.0891 4.38574C65.0891 3.20502 65.0891 3.20502 65.2772 2.53032C66.7051 2.53032 68.1329 2.53032 69.604 2.53032C69.604 2.08502 69.604 1.63971 69.604 1.18092C69.698 0.759232 69.698 0.759232 69.7921 0.50622C71.7507 0.226642 73.6385 -0.0280583 75.6238 0.000196162ZM72.3082 1.93996C72.0776 1.96344 72.0776 1.96344 71.8423 1.9874C71.7244 1.99957 71.6066 2.01175 71.4852 2.02429C71.4852 2.19128 71.4852 2.35827 71.4852 2.53032C72.1059 2.53032 72.7267 2.53032 73.3663 2.53032C73.4284 2.30767 73.4905 2.08502 73.5545 1.85562C73.1324 1.85562 72.7275 1.89698 72.3082 1.93996Z" fill="#005859"/>
<path d="M16.3663 22.7715C17.1724 23.0019 17.5762 23.3124 18.1182 23.889C18.2494 24.0268 18.3805 24.1647 18.5157 24.3067C18.6623 24.4652 18.6623 24.4652 18.8118 24.6269C18.5376 25.1867 18.192 25.58 17.7184 26.0185C17.593 26.1376 17.4677 26.2568 17.3385 26.3795C16.9307 26.651 16.9307 26.651 16.4611 26.7307C15.845 26.6264 15.6179 26.4138 15.1906 26.0079C15.0616 25.8886 14.9325 25.7692 14.7996 25.6462C14.4851 25.3016 14.4851 25.3016 14.297 24.7956C14.5115 24.2187 14.7149 24.0722 15.2258 23.6887C15.6201 23.3903 16.0013 23.0987 16.3663 22.7715Z" fill="#005859"/>
<path d="M38.3645 35.748C38.9206 36.0049 39.2829 36.3518 39.6931 36.7706C39.6931 36.882 39.6931 36.9933 39.6931 37.108C38.7619 37.108 37.8307 37.108 36.8713 37.108C37.6176 35.7696 37.6176 35.7696 38.3645 35.748Z" fill="#05676F"/>
<path d="M37.0594 33.7354C37.9906 33.7354 38.9218 33.7354 39.8812 33.7354C38.8231 34.6841 38.8231 34.6841 38.1882 35.0847C37.9995 34.8919 37.8115 34.6985 37.6238 34.5049C37.519 34.3973 37.4143 34.2897 37.3064 34.1788C37.0594 33.904 37.0594 33.904 37.0594 33.7354Z" fill="#05676F"/>
<path d="M26.3367 19.5C27.6403 19.5 28.944 19.5 30.2872 19.5C30.2872 24.0643 30.2872 28.6287 30.2872 33.3313C32.1495 33.3313 34.0119 33.3313 35.9307 33.3313C35.5583 33.721 35.1858 34.1106 34.802 34.512C34.5074 34.9177 34.5074 34.9177 34.6139 35.3554C34.9305 35.6978 35.2675 35.9936 35.6361 36.291C35.7333 36.3719 35.8305 36.4528 35.9307 36.5361C35.9307 36.5918 35.9307 36.6475 35.9307 36.7048C32.7647 36.7048 29.5987 36.7048 26.3367 36.7048C26.3367 31.0272 26.3367 25.3496 26.3367 19.5Z" fill="#05676F"/>
</g>
<defs>
<clipPath id="clip0_141_686">
<rect width="76" height="42" fill="white"/>
</clipPath>
</defs>
</svg>
