<svg width="17" height="19" viewBox="0 0 17 19" fill="none" xmlns="http://www.w3.org/2000/svg">
<path d="M1 2.83388C0.999904 2.51129 1.08492 2.1944 1.24648 1.91518C1.40803 1.63597 1.64039 1.40433 1.92011 1.24364C2.19982 1.08295 2.51698 0.998916 2.83956 1.00001C3.16214 1.00111 3.47872 1.0873 3.75733 1.24988L14.7546 7.66471C15.0321 7.82575 15.2625 8.05681 15.4228 8.3348C15.583 8.61279 15.6675 8.92796 15.6678 9.24884C15.6681 9.56971 15.5841 9.88503 15.4244 10.1633C15.2646 10.4416 15.0346 10.673 14.7573 10.8345L3.75733 17.2512C3.47872 17.4138 3.16214 17.5 2.83956 17.5011C2.51698 17.5022 2.19982 17.4181 1.92011 17.2574C1.64039 17.0968 1.40803 16.8651 1.24648 16.5859C1.08492 16.3067 0.999904 15.9898 1 15.6672V2.83388Z" stroke="white" stroke-width="2" stroke-linecap="round" stroke-linejoin="round"/>
</svg>
