<svg width="26" height="29" viewBox="0 0 26 29" fill="none" xmlns="http://www.w3.org/2000/svg">
<g clip-path="url(#clip0_211_401)">
<path d="M15.0006 3.74363L17.064 7.72099C17.3454 8.27465 18.0956 8.80572 18.7288 8.90741L22.4686 9.50627C24.8603 9.89046 25.4231 11.5628 23.6996 13.2125L20.7922 16.0147C20.2997 16.4892 20.0301 17.4045 20.1825 18.0599L21.0149 21.5288C21.6714 24.2745 20.159 25.3367 17.6385 23.9016L14.1331 21.9016C13.5 21.5401 12.4566 21.5401 11.8118 21.9016L8.30641 23.9016C5.79754 25.3367 4.27346 24.2632 4.92999 21.5288L5.76237 18.0599C5.91477 17.4045 5.64513 16.4892 5.15273 16.0147L2.24526 13.2125C0.533602 11.5628 1.08462 9.89046 3.47625 9.50627L7.21611 8.90741C7.83746 8.80572 8.58778 8.27465 8.86914 7.72099L10.9325 3.74363C12.058 1.58546 13.8868 1.58546 15.0006 3.74363Z" stroke-width="1.9" stroke-linecap="round" stroke-linejoin="round"/>
</g>
<defs>
<clipPath id="clip0_211_401">
<rect width="26" height="29" fill="white"/>
</clipPath>
</defs>
</svg>
